<?xml version="1.0" encoding="UTF-8"?>
<svg id="Layer_2" data-name="Layer 2" xmlns="http://www.w3.org/2000/svg" viewBox="0 0 561.59 157">
  <defs>
    <style>
      .cls-1 {
        fill: #68e0b4;
      }

      .cls-2 {
        fill: #51dba8;
      }

      .cls-3 {
        fill: #fff;
      }

      .cls-4 {
        fill: #3fd89f;
      }

      .cls-5 {
        fill: #75e2bb;
      }

      .cls-6 {
        fill: #c1f1e0;
      }

      .cls-7 {
        fill: #acedd5;
      }

      .cls-8 {
        fill: #90e7c7;
      }

      .cls-9 {
        fill: #9febcf;
      }
    </style>
  </defs>
  <path class="cls-3" d="M267,86.23h-53.61c2.43,15.85,24.49,20.36,35.64,10.92,1.04-.88,2.19-3.09,3.11-3.12.71-.02,8.24,4.35,9.48,5.12.63.4,2.46,1.04,2.19,1.83-.94,2.83-8.26,8.81-11.04,10.31-21.37,11.49-50.51.12-54.42-24.86-6.79-43.37,52.3-58.05,66.43-20.11.54,1.44,2.22,6.5,2.22,7.67v12.23ZM252.43,74.26c-3.11-21.93-35.92-21.61-39.03,0h39.03Z"/>
  <path class="cls-3" d="M325.81,113.82v-43.98c0-3.4-3.89-8.2-6.93-9.72-10.31-5.16-24.82,1.59-24.82,13.89v39.82h-14.57V46.94c0-.06.73-.78.78-.78h13.79v8.33c9.09-12.98,30.94-13.26,40.81-1,10.78,13.39,4.12,42.11,6.06,58.54.11.53-.38,1.8-.81,1.8h-14.31Z"/>
  <path class="cls-3" d="M511.88,46.16c.32.05,1.12.57,1.33.88l17.92,42.84c2.7-4.33,13.81-43.72,16.14-43.72h14.31c-.47,4.01-2.36,8.2-3.77,12.1-6.14,16.94-12.45,34.91-19.26,51.53-5.02,12.23-11.95,23.81-27.19,23.81h-12.23v-14.05h11.71c1.22,0,6.11-2.24,7.29-3.12,1.5-1.12,5.64-6.2,5.38-7.94l-26.21-60.74-.24-1.58c4.5.53,10.54-.71,14.83,0Z"/>
  <path class="cls-3" d="M403.41,69.02c-7.23-15.38-31.68-12.05-36.63,3.78-7.71,24.65,24.01,39.28,37.4,18.08.63-.04,10.21,5.3,11.13,6.04,2.05,1.62.52,2.88-.59,4.58-14.55,22.2-51.53,17.04-61.2-7.84-12.37-31.81,20.49-60.82,50.37-44.65,2.66,1.44,13.12,10.08,12.44,12.97-.17.72-12.08,7.67-12.92,7.04Z"/>
  <path class="cls-3" d="M157.7,99.77h32.27v14.05h-52.57v-10.15l31.23-43.46h-31.23v-13.27c0-.06.73-.78.78-.78h49.44c.06,0,.78.73.78.78v9.89l-30.71,42.94Z"/>
  <path class="cls-3" d="M474.67,27.94v18.22h14.57v14.57h-14.57v34.61c0,.67,1.4,3.04,2.1,3.62.88.72,4.42,1.84,5.44,1.84h9.11v13.01c-13.9,1.48-29.16,1.06-31.08-16.02l-.12-66.19,14.55-3.66Z"/>
  <path class="cls-3" d="M443.44,45.12v68.7h-14.57V49.54c4.52-2,9.65-3.44,14.57-4.42Z"/>
  <path class="cls-4" d="M22.9,33.15c1.41,0,1.46.62,1.59,1.8.71,6.45-.84,14.5-.06,20.87.21,1.7,1.04,1.68,1.07,1.79.23.88-5.28,9.09-5.52,10.97L0,62.29c3.82-12.76,11.91-22.09,22.9-29.14Z"/>
  <path class="cls-4" d="M84.32,97.16c.31-.58,1.39-5,1.59-5.18l.74-.05,19.53,6.27c.55.63-3.19,8.11-3.9,9.37-2.53,4.5-7.26,11.04-11.19,14.31-1.61,1.34-3.51,2.2-5.21,3.38.01-.23-.69-1.02-.52-1.56,3.9-.03,0-1.59,0-1.82v-15.61c0-.22-.52-1.15-.56-2.04-.11-2.45,1.03-5.01-.48-7.07Z"/>
  <path class="cls-2" d="M84.32,97.16c1.51,2.05.38,4.62.48,7.07.04.89.56,1.83.56,2.04v15.61c0,.24,3.9,1.79,0,1.82-.17.54.54,1.32.52,1.56-.19,3.12-13.33,7.47-16.13,8.33l-1.04-21.86c5.07-2.48,12.99-9.6,15.61-14.57Z"/>
  <path class="cls-8" d="M52.05,115.38c.39,5.52,1.12,12.49.55,17.98-.12,1.15-.84,1.78-1.07,2.84-7.54-.17-11.26-1.05-18.22-3.64-.28-1.3.45-1.11,1.56-1.04.3-.72-.52-1.56-.52-1.82v-15.61c0-.83.82-2.43,0-3.9,4.5,2.63,12.5,5.06,17.7,5.2ZM35.65,111.74v.52c.34-.17.34-.35,0-.52Z"/>
  <path class="cls-7" d="M15.62,93.52c.97-.28,3.43-2.24,4.7-1.34.3.21,2.58,5.33,3.33,6.61,1.43,2.42,3.25,5.04,5.5,7.23-1.73-.23-.87.62-.79,1.57.61,7.61.1,15.28.27,22.9-5.52-2.68-7.82-4.23-12.49-8.33l-.52-28.63Z"/>
  <path class="cls-6" d="M87.44,35.75c8.74,6.77,14.97,15.21,18.73,25.74-6.12,2.4-12.34,5.13-18.73,6.52v-32.27Z"/>
  <path class="cls-5" d="M59.34,24.3c-.21,1.16.27,1.5,1.04.52.17.03.35-.03.52,0,.76,4.85.65,9.93.55,14.86-.02.82-.58,2.19-.49,2.55.21.82,2.75.46.46,3.93-6-1.53-11.11-1.41-17.18,0-.81-2.73,1.42-1.85,1.57-2.35.39-1.35-1.33-.54-1.57-.78-.12-.12.52-2.46.55-3.35.13-4.65.23-9.81-.55-14.34.34-.06.98-.9,1.83-1.02,4.66-.61,8.61-.54,13.26-.03ZM60.37,44.08c-.73-.37-1.39.33-1.04.51.73.37,1.39-.33,1.04-.51Z"/>
  <path class="cls-2" d="M34.87,27.42c.2,1.43,2.98,1.42,3.13,1.56.29.3-.52,1.15-.52,1.3v16.92c0,.14-3.01.39,0,1.04-.28.13-4.66,3.09-5.15,3.46-2.25,1.7-4.09,4.78-6.82,5.91-.03-.11-.86-.09-1.07-1.79-.79-6.38.77-14.43.06-20.87-.13-1.18-.18-1.8-1.59-1.8,4.74-3.04,6.56-3.88,11.97-5.73Z"/>
  <path class="cls-3" d="M433.41,18.17c12.71-2.6,16.46,13.37,6.68,17.61-8.26,3.58-16.53-5.42-11.85-13.41.95-1.61,3.32-3.82,5.17-4.2Z"/>
  <path class="cls-6" d="M15.62,93.52l.52,28.63c-.24-.21-.91-.26-1.37-.69-6.57-6.12-11.84-14.29-14.25-22.98,4.24-1.35,8.38-3.23,12.62-4.59.94-.3,1.86-.18,2.48-.36Z"/>
  <path class="cls-7" d="M87.44,35.75v32.27c-.46.03-.75-.39-1.04-.52.12-1.11.07-1.17-1.04-1.04-2.62-4.91-4.05-8.06-8.33-11.97,1.22-.56,1.44-2.21,1.56-3.38.64-5.97-.42-12.31-.53-18.17,0-.13,1.85-.75,1.05-2.38,3.53,1.81,5.14,2.73,8.33,5.2Z"/>
  <path class="cls-8" d="M71.83,27.42c.35,1.24-1.55,1.44-1.58,1.87s.55,1.59.56,2.53c.07,4.08.46,10.29,0,14.11-.16,1.36-.59,1.58-1.6,2.31-.75-.38-6.45-1.73-7.81-2.08,2.29-3.47-.26-3.11-.46-3.93-.09-.37.47-1.73.49-2.55.11-4.93.22-10.01-.55-14.86,4.25.71,6.74,1.18,10.93,2.6Z"/>
  <path class="cls-9" d="M79.11,30.54c.8,1.64-1.05,2.25-1.05,2.38.11,5.87,1.16,12.2.53,18.17-.13,1.18-.34,2.82-1.56,3.38-1.04-.95-7.31-5.99-7.81-6.25,1-.73,1.44-.95,1.6-2.31.46-3.82.06-10.03,0-14.11-.02-.94-.6-2.11-.56-2.53s1.93-.63,1.58-1.87c3.14,1.06,4.39,1.64,7.29,3.12Z"/>
  <path class="cls-1" d="M68.7,111.74l1.04,21.86c-2.53.77-3.45,1.06-6.25,1.56-.53-.59-2.42-.39-2.58-.54-.53-.52,0-12.83,0-14.83,0-1.79-1.21-2.78.49-4.4-.83.42-1.98-.51-2.08-.53,3.16-.77,6.45-1.69,9.37-3.12Z"/>
  <path class="cls-5" d="M59.34,114.86c.11.01,1.25.95,2.08.53-1.7,1.62-.5,2.61-.49,4.4,0,2-.53,14.31,0,14.83.16.16,2.06-.04,2.58.54-4.63.83-7.1,1.15-11.97,1.04.23-1.05.95-1.69,1.07-2.84.57-5.49-.15-12.46-.55-17.98,2.52.07,5.12-.76,7.29-.52Z"/>
  <path class="cls-1" d="M44.24,25.34c.78,4.53.68,9.69.55,14.34-.03.9-.67,3.23-.55,3.35.24.24,1.96-.57,1.57.78-.14.5-2.38-.38-1.57,2.35-1.08.25-5.99,1.71-6.77,2.08-3.01-.65,0-.9,0-1.04v-16.92c0-.15.82-1,.52-1.3-.14-.14-2.92-.13-3.13-1.56,4.49-1.53,4.86-1.32,9.37-2.08Z"/>
  <path class="cls-9" d="M29.15,106.01c.99.96,4.04,3.48,5.2,4.16.82,1.47,0,3.08,0,3.9v15.61c0,.26.82,1.1.52,1.82-1.11-.06-1.84-.26-1.56,1.04-1.83-.69-2.97-1.25-4.68-2.08-.17-7.62.34-15.28-.27-22.9-.08-.95-.94-1.8.79-1.57Z"/>
  <path class="cls-8" d="M60.38,24.82c-.77.98-1.25.64-1.04-.52.92.1.98.51,1.04.52Z"/>
  <path class="cls-6" d="M85.36,66.46c1.11-.12,1.17-.07,1.04,1.04-.17-.08-.69.16-.95-.1s-.02-.79-.1-.94Z"/>
  <path class="cls-9" d="M35.65,111.74c.34.17.34.35,0,.52v-.52Z"/>
  <path class="cls-8" d="M60.37,44.08c.35.18-.3.88-1.04.51-.35-.18.3-.88,1.04-.51Z"/>
</svg>